<svg width="32" height="32" viewBox="0 0 32 32" fill="none" xmlns="http://www.w3.org/2000/svg">
<g clip-path="url(#clip0_1185_43)">
<path fill-rule="evenodd" clip-rule="evenodd" d="M13.9005 16.0599V23.8899C13.9004 23.9439 13.9212 23.9959 13.9584 24.035C13.9957 24.0741 14.0465 24.0973 14.1005 24.0999H17.0005C17.0544 24.0973 17.1053 24.0741 17.1426 24.035C17.1798 23.9959 17.2005 23.9439 17.2005 23.8899V15.8899H19.3105C19.3611 15.8877 19.4093 15.8673 19.4461 15.8323C19.4828 15.7974 19.5057 15.7504 19.5105 15.6999L19.7105 13.2999C19.7133 13.272 19.7102 13.2438 19.7014 13.2172C19.6926 13.1906 19.6783 13.1661 19.6595 13.1454C19.6406 13.1246 19.6176 13.1081 19.5919 13.0968C19.5663 13.0855 19.5385 13.0798 19.5105 13.0799H17.2105V11.3799C17.2105 11.1889 17.2863 11.0058 17.4214 10.8708C17.5564 10.7358 17.7395 10.6599 17.9305 10.6599H19.5605C19.6135 10.6599 19.6644 10.6388 19.7019 10.6013C19.7394 10.5638 19.7605 10.5129 19.7605 10.4599V8.1099C19.7605 8.0559 19.7398 8.00394 19.7026 7.96484C19.6653 7.92573 19.6144 7.90247 19.5605 7.8999H16.8105C16.4275 7.8999 16.0483 7.9755 15.6946 8.12237C15.3409 8.26923 15.0196 8.48448 14.7493 8.75575C14.4789 9.02703 14.2648 9.34901 14.1191 9.70322C13.9735 10.0574 13.8992 10.4369 13.9005 10.8199V13.1299H12.4405C12.4134 13.1299 12.3865 13.1354 12.3616 13.146C12.3366 13.1567 12.3141 13.1723 12.2954 13.192C12.2767 13.2116 12.2622 13.2349 12.2527 13.2603C12.2433 13.2857 12.2391 13.3128 12.2405 13.3399V15.7299C12.2404 15.7839 12.2612 15.8359 12.2984 15.875C12.3357 15.9141 12.3865 15.9373 12.4405 15.9399H13.9005V16.0599Z" fill="#1D98A5"/>
<path d="M16 32C12.8355 32 9.74207 31.0616 7.11088 29.3035C4.4797 27.5454 2.42894 25.0466 1.21793 22.1229C0.0069325 19.1993 -0.309921 15.9823 0.307443 12.8786C0.924806 9.77487 2.44866 6.92394 4.6863 4.6863C6.92394 2.44866 9.77487 0.924806 12.8786 0.307443C15.9823 -0.309921 19.1993 0.0069325 22.1229 1.21793C25.0466 2.42894 27.5454 4.4797 29.3035 7.11088C31.0616 9.74207 32 12.8355 32 16C32 20.2435 30.3143 24.3131 27.3137 27.3137C24.3131 30.3143 20.2435 32 16 32ZM16 1.51001C13.1342 1.51001 10.3327 2.35983 7.94979 3.95201C5.56693 5.54419 3.70971 7.80722 2.61299 10.4549C1.51628 13.1026 1.22933 16.0161 1.78843 18.8269C2.34753 21.6377 3.72757 24.2195 5.75403 26.246C7.78049 28.2724 10.3624 29.6525 13.1731 30.2116C15.9839 30.7707 18.8974 30.4837 21.5451 29.387C24.1928 28.2903 26.4558 26.4331 28.048 24.0502C29.6402 21.6674 30.49 18.8659 30.49 16C30.4847 12.1586 28.9564 8.47613 26.2401 5.75987C23.5239 3.04362 19.8414 1.5153 16 1.51001Z" fill="#1D98A5"/>
</g>
<defs>
<clipPath id="clip0_1185_43">
<rect width="32" height="32" fill="white"/>
</clipPath>
</defs>
</svg>
