<svg width="32" height="32" viewBox="0 0 32 32" fill="none" xmlns="http://www.w3.org/2000/svg">
<g clip-path="url(#clip0_1185_46)">
<path d="M8.87015 11.9H11.9301V21.73H8.87015V11.9ZM10.4001 7.00003C10.7494 7.00201 11.0902 7.10724 11.3797 7.30249C11.6693 7.49774 11.8946 7.77427 12.0273 8.09729C12.16 8.4203 12.1942 8.77536 12.1256 9.11777C12.057 9.46018 11.8886 9.77464 11.6417 10.0216C11.3948 10.2685 11.0803 10.4369 10.7379 10.5055C10.3955 10.5741 10.0404 10.5399 9.7174 10.4072C9.39439 10.2745 9.11786 10.0491 8.92261 9.7596C8.72736 9.47007 8.62212 9.12924 8.62015 8.78003C8.61882 8.5459 8.66395 8.31384 8.75294 8.09729C8.84192 7.88073 8.97299 7.68397 9.13854 7.51842C9.30409 7.35287 9.50084 7.2218 9.7174 7.13282C9.93396 7.04384 10.166 6.9987 10.4001 7.00003ZM13.8501 21.72H16.8501V16.86C16.8501 15.58 17.0901 14.34 18.6801 14.34C20.2701 14.34 20.2701 15.81 20.2701 16.95V21.73H23.3301V16.33C23.3301 13.69 22.7601 11.65 19.6601 11.65C19.0796 11.6288 18.5042 11.7654 17.9953 12.0454C17.4863 12.3254 17.0629 12.7383 16.7701 13.24V11.9H13.8501V21.72Z" fill="#1D98A5"/>
<path d="M16 32C12.8355 32 9.74207 31.0616 7.11088 29.3035C4.4797 27.5454 2.42894 25.0466 1.21793 22.1229C0.0069325 19.1993 -0.309921 15.9823 0.307443 12.8786C0.924806 9.77487 2.44866 6.92394 4.6863 4.6863C6.92394 2.44866 9.77487 0.924806 12.8786 0.307443C15.9823 -0.309921 19.1993 0.0069325 22.1229 1.21793C25.0466 2.42894 27.5454 4.4797 29.3035 7.11088C31.0616 9.74207 32 12.8355 32 16C32 20.2435 30.3143 24.3131 27.3137 27.3137C24.3131 30.3143 20.2435 32 16 32ZM16 1.51001C13.1342 1.51001 10.3327 2.35983 7.94979 3.95201C5.56693 5.54419 3.70971 7.80722 2.61299 10.4549C1.51628 13.1026 1.22933 16.0161 1.78843 18.8269C2.34753 21.6377 3.72757 24.2195 5.75403 26.246C7.78049 28.2724 10.3624 29.6525 13.1731 30.2116C15.9839 30.7707 18.8974 30.4837 21.5451 29.387C24.1928 28.2903 26.4558 26.4331 28.048 24.0502C29.6402 21.6674 30.49 18.8659 30.49 16C30.4847 12.1586 28.9564 8.47613 26.2401 5.75987C23.5239 3.04362 19.8414 1.5153 16 1.51001Z" fill="#1D98A5"/>
</g>
<defs>
<clipPath id="clip0_1185_46">
<rect width="32" height="32" fill="white"/>
</clipPath>
</defs>
</svg>
