<svg width="32" height="32" viewBox="0 0 32 32" fill="none" xmlns="http://www.w3.org/2000/svg">
<g clip-path="url(#clip0_1185_32)">
<path d="M16 32C7.2 32 0 24.8 0 16C0 7.2 7.2 0 16 0C24.8 0 32 7.2 32 16C32 24.8 24.8 32 16 32ZM16 1.5C8 1.5 1.5 8 1.5 16C1.5 24 8 30.5 16 30.5C24 30.5 30.5 24 30.5 16C30.5 8 24 1.5 16 1.5Z" fill="#1D98A5"/>
<g clip-path="url(#clip1_1185_32)">
<path d="M19.9574 10H22.0931L17.4039 15.5166L22.8824 23H18.5831L15.2171 18.4524L11.3635 23H9.22779L14.1956 17.0996L8.94922 10H13.3553L16.3964 14.1542L19.9574 10ZM19.2099 21.7048H20.3939L12.7331 11.2472H11.461L19.2099 21.7048Z" fill="#1D98A5"/>
</g>
</g>
<defs>
<clipPath id="clip0_1185_32">
<rect width="32" height="32" fill="white"/>
</clipPath>
<clipPath id="clip1_1185_32">
<rect width="13.9286" height="13" fill="white" transform="translate(9 10)"/>
</clipPath>
</defs>
</svg>
