<svg width="32" height="32" viewBox="0 0 32 32" fill="none" xmlns="http://www.w3.org/2000/svg">
<g clip-path="url(#clip0_1185_49)">
<path d="M24.21 16.0001L11.79 23.1701V8.83008L24.21 16.0001Z" fill="#1D98A5"/>
<path d="M16 32C12.8355 32 9.74207 31.0616 7.11088 29.3035C4.4797 27.5454 2.42894 25.0466 1.21793 22.1229C0.0069325 19.1993 -0.309921 15.9823 0.307443 12.8786C0.924806 9.77487 2.44866 6.92394 4.6863 4.6863C6.92394 2.44866 9.77487 0.924806 12.8786 0.307443C15.9823 -0.309921 19.1993 0.0069325 22.1229 1.21793C25.0466 2.42894 27.5454 4.4797 29.3035 7.11088C31.0616 9.74207 32 12.8355 32 16C32 20.2435 30.3143 24.3131 27.3137 27.3137C24.3131 30.3143 20.2435 32 16 32ZM16 1.51001C13.1342 1.51001 10.3327 2.35983 7.94979 3.95201C5.56693 5.54419 3.70971 7.80722 2.61299 10.4549C1.51628 13.1026 1.22933 16.0161 1.78843 18.8269C2.34753 21.6377 3.72757 24.2195 5.75403 26.246C7.78049 28.2724 10.3624 29.6525 13.1731 30.2116C15.9839 30.7707 18.8974 30.4837 21.5451 29.387C24.1928 28.2903 26.4558 26.4331 28.048 24.0502C29.6402 21.6674 30.49 18.8659 30.49 16C30.4847 12.1586 28.9564 8.47613 26.2401 5.75987C23.5239 3.04362 19.8414 1.5153 16 1.51001Z" fill="#1D98A5"/>
</g>
<defs>
<clipPath id="clip0_1185_49">
<rect width="32" height="32" fill="white"/>
</clipPath>
</defs>
</svg>
